<svg width="108" height="114" viewBox="0 0 108 114" fill="none" xmlns="http://www.w3.org/2000/svg">
<path d="M15.9278 65.7423C27.5585 83.5881 50.81 100.267 76.713 95.6154C77.419 95.4916 77.8532 94.8061 77.8192 94.2084C77.3842 87.8421 73.3184 82.2227 69.5834 77.3346C65.1288 71.4873 60.1739 66.4764 53.5677 62.5619C47.4799 58.9511 41.1251 56.9948 33.4994 56.5848C29.6826 56.3717 25.8053 56.4653 21.9403 56.6321C20.2159 56.7139 18.4727 56.8048 16.7373 56.9117C15.5198 56.9858 14.0873 56.8075 12.9401 57.3627C12.2631 57.6903 12.037 58.3742 12.2558 58.9221C13.1642 61.3746 14.7451 63.4423 15.9278 65.7423C16.5869 67.0082 18.9454 65.8866 18.2786 64.6047C17.0958 62.3047 15.5149 60.237 14.5954 57.8096C14.3636 58.3377 14.1318 58.8659 13.9111 59.369C14.6821 58.9958 16.8718 59.2039 17.8435 59.1496C19.4694 59.0561 21.1031 58.9787 22.7179 58.9103C26.2011 58.7698 29.6965 58.7025 33.1347 58.9007C40.4804 59.3076 46.5098 61.2629 52.3617 64.7699C58.4728 68.4289 63.0222 73.0813 67.1873 78.4744C70.8213 83.1538 74.8626 88.6267 75.2874 94.78C75.6598 94.3026 76.0212 93.8504 76.3936 93.373C63.9197 95.6064 52.0188 92.2138 42.2108 86.7189C32.437 81.2469 24.1305 73.5792 18.2708 64.5887C17.4957 63.4186 15.1372 64.5402 15.9278 65.7423Z" fill="#DDDDDD"/>
<path d="M15.4067 60.5868C27.0884 64.9175 37.9991 70.5325 48.3616 76.7893C52.8223 79.4839 57.4277 81.95 61.9889 84.5166C66.7484 87.2053 71.5525 90.1299 74.7311 94.3958C75.5893 95.5455 77.6084 93.9146 76.7503 92.7649C73.6759 88.6664 69.1175 85.722 64.5518 83.098C59.6925 80.2992 54.7184 77.6946 49.9298 74.8021C39.3768 68.4395 28.2879 62.7918 16.4047 58.3804C14.9374 57.8425 13.9738 60.0719 15.4067 60.5868Z" fill="#DDDDDD"/>
<path d="M69.0823 91.3046C56.4889 87.2963 43.5226 83.4289 33.2162 75.897C32.0285 75.0257 30.4869 77.0198 31.6745 77.8911C42.1261 85.531 55.3127 89.4701 68.0921 93.5271C69.5737 93.9986 70.545 91.7853 69.0823 91.3046Z" fill="#DDDDDD"/>
<path d="M59.1139 74.2591C53.3041 69.8799 46.4281 67.0864 39.4172 64.3978C37.9876 63.8417 37.024 66.0711 38.4459 66.6111C45.2896 69.242 51.9342 71.989 57.5911 76.2441C58.7489 77.1497 60.2828 75.1396 59.1139 74.2591Z" fill="#DDDDDD"/>
<path d="M32.5304 71.2756C30.0476 69.4066 27.8412 67.2455 25.1417 65.6002C24.6078 65.2643 23.7669 65.493 23.3535 66.0298C22.9214 66.5757 23.0551 67.2836 23.6078 67.6104C26.3073 69.2556 28.5137 71.4168 30.9965 73.2857C31.5006 73.6559 32.4012 73.3587 32.7847 72.8561C33.2201 72.269 33.0157 71.6548 32.5304 71.2756Z" fill="#DDDDDD"/>
<path d="M12.2986 37.3874C32.351 47.5521 62.6746 51.795 84.9692 37.2416C85.6074 36.8337 85.5068 36.0503 85.1986 35.6052C81.5351 30.3854 74.6709 27.3286 68.6077 24.7756C61.9054 21.9575 55.224 19.9018 47.5614 19.2718C39.8723 18.6349 32.7494 19.4077 25.1441 22.1573C21.2341 23.5741 17.4341 25.3141 13.673 27.1344C11.9993 27.9444 10.3145 28.7795 8.64857 29.6056C7.47157 30.195 6.01657 30.6416 5.16991 31.6259C4.84163 32.0027 4.79379 32.7191 5.17605 33.0294C7.32442 34.7828 9.93026 35.8989 12.2986 37.3874C13.5647 38.1812 15.1064 36.187 13.8402 35.3933C11.6624 34.0107 9.17515 32.9957 7.1764 31.4076C7.17477 31.8838 7.18418 32.3349 7.18255 32.8111C7.71974 32.1946 10.0897 31.3844 11.0112 30.9384C12.5831 30.1579 14.155 29.3773 15.7424 28.6289C19.1353 27.0067 22.5669 25.4648 26.104 24.1888C33.3741 21.5618 40.2726 20.9966 47.5909 21.6347C54.8904 22.2819 61.273 24.3436 67.6486 27.0623C73.3508 29.4928 79.7322 32.3672 83.1683 37.2613C83.2485 36.7074 83.3176 36.1788 83.3977 35.6249C72.6706 42.619 59.6529 44.6402 47.5906 44.0793C35.5737 43.5162 23.8781 40.4997 13.848 35.4094C12.4923 34.7184 10.9507 36.7125 12.2986 37.3874Z" fill="#DDDDDD"/>
<path d="M8.89974 33.2892C22.5593 32.0668 36.0778 32.2796 49.4324 33.3046C54.9319 33.7334 60.4841 33.8395 66.0045 34.1196C71.5514 34.4066 77.301 34.8728 82.1595 36.9985C83.5405 37.598 85.0899 35.6199 83.7012 35.0044C74.1592 30.8268 62.285 31.9973 51.6114 31.1407C37.669 30.004 23.5249 29.6978 9.24559 30.9824C7.6242 31.1332 7.27836 33.44 8.89974 33.2892Z" fill="#DDDDDD"/>
<path d="M75.4281 36.8493C61.5943 38.671 47.4201 40.7962 34.0001 38.7727C32.4457 38.5345 31.4556 40.7569 33.0287 40.9861C46.9038 43.0865 61.43 40.9692 75.7474 39.0917C77.3831 38.8746 77.045 36.6413 75.4281 36.8493Z" fill="#DDDDDD"/>
<path d="M57.7406 26.7275C50.0208 25.4517 42.1371 25.8994 34.1119 26.5345C32.4827 26.6692 32.1369 28.976 33.766 28.8413C41.5455 28.2261 49.262 27.7207 56.7692 28.9409C58.3314 29.1952 59.3027 26.9818 57.7406 26.7275Z" fill="#DDDDDD"/>
<path d="M31.0248 35.1767C27.6238 34.6237 24.3507 33.7117 20.8549 33.4424C20.2073 33.3992 19.4919 33.9832 19.4085 34.5782C19.3374 35.2465 19.8083 35.6921 20.4903 35.7583C21.3537 35.8159 21.998 35.9002 22.7752 36.0194C23.6055 36.1524 24.4248 36.3106 25.244 36.4688C26.8372 36.7873 28.4006 37.14 30.0158 37.4082C30.6491 37.5177 31.4291 37.2591 31.6707 36.6073C31.9324 36.0449 31.7112 35.3001 31.0248 35.1767Z" fill="#DDDDDD"/>
</svg>
